Cantarell-Regular_20180626.ufo
<glyph name="greater" format="2">
	<unicode hex="003E"/>
	<advance width="607"/>
	<outline>
		<contour>
			<point x="87" y="85" type="line"/>
			<point x="533" y="306" type="line"/>
			<point x="533" y="370" type="line"/>
			<point x="87" y="599" type="line"/>
			<point x="87" y="516" type="line"/>
			<point x="477" y="322" type="line"/>
			<point x="477" y="350" type="line"/>
			<point x="87" y="163" type="line"/>
		</contour>
	</outline>
</glyph>
<glyph name="E" format="2">
	<unicode hex="0045"/>
	<advance width="605"/>
	<outline>
		<contour>
			<point x="106" y="0" type="line"/>
			<point x="189" y="0" type="line"/>
			<point x="189" y="694" type="line"/>
			<point x="106" y="694" type="line"/>
		</contour>
		<contour>
			<point x="146" y="0" type="line"/>
			<point x="542" y="0" type="line"/>
			<point x="542" y="72" type="line"/>
			<point x="146" y="72" type="line"/>
		</contour>
		<contour>
			<point x="146" y="323" type="line"/>
			<point x="515" y="323" type="line"/>
			<point x="515" y="395" type="line"/>
			<point x="146" y="395" type="line"/>
		</contour>
		<contour>
			<point x="146" y="622" type="line"/>
			<point x="542" y="622" type="line"/>
			<point x="542" y="694" type="line"/>
			<point x="146" y="694" type="line"/>
		</contour>
	</outline>
	<anchor name="bottom" x="315" y="0"/>
	<anchor name="ogonek" x="520" y="10"/>
	<anchor name="top" x="335" y="694"/>
	<anchor name="topleft" x="17" y="694"/>
	<note>
		E
	</note>
</glyph>
<glyph name="F" format="2">
	<unicode hex="0046"/>
	<advance width="588"/>
	<outline>
		<contour>
			<point x="106" y="0" type="line"/>
			<point x="189" y="0" type="line"/>
			<point x="189" y="694" type="line"/>
			<point x="106" y="694" type="line"/>
		</contour>
		<contour>
			<point x="138" y="322" type="line"/>
			<point x="508" y="322" type="line"/>
			<point x="508" y="394" type="line"/>
			<point x="138" y="394" type="line"/>
		</contour>
		<contour>
			<point x="138" y="622" type="line"/>
			<point x="537" y="622" type="line"/>
			<point x="537" y="694" type="line"/>
			<point x="138" y="694" type="line"/>
		</contour>
	</outline>
	<anchor name="bottom" x="273" y="0"/>
	<anchor name="top" x="273" y="694"/>
	<note>
		F
	</note>
</glyph>
<glyph name="I" format="2">
	<unicode hex="0049"/>
	<advance width="295"/>
	<outline>
		<contour>
			<point x="106" y="0" type="line"/>
			<point x="189" y="0" type="line"/>
			<point x="189" y="694" type="line"/>
			<point x="106" y="694" type="line"/>
		</contour>
	</outline>
	<anchor name="bottom" x="148" y="0"/>
	<anchor name="ogonek" x="167" y="10"/>
	<anchor name="top" x="148" y="694"/>
	<anchor name="topleft" x="17" y="694"/>
	<note>
		I
	</note>
</glyph>
<glyph name="U" format="2">
	<unicode hex="0055"/>
	<advance width="714"/>
	<outline>
		<contour>
			<point x="352" y="-10" type="curve" smooth="yes"/>
			<point x="513" y="-10"/>
			<point x="621" y="92"/>
			<point x="621" y="246" type="curve" smooth="yes"/>
			<point x="621" y="694" type="line"/>
			<point x="540" y="694" type="line"/>
			<point x="540" y="236" type="line" smooth="yes"/>
			<point x="540" y="127"/>
			<point x="475" y="63"/>
			<point x="363" y="63" type="curve" smooth="yes"/>
			<point x="245" y="63"/>
			<point x="177" y="133"/>
			<point x="177" y="253" type="curve" smooth="yes"/>
			<point x="177" y="694" type="line"/>
			<point x="94" y="694" type="line"/>
			<point x="94" y="243" type="line" smooth="yes"/>
			<point x="94" y="90"/>
			<point x="195" y="-10"/>
		</contour>
	</outline>
	<anchor name="bottom" x="357" y="0"/>
	<anchor name="ogonek" x="451" y="10"/>
	<anchor name="top" x="357" y="694"/>
	<anchor name="topright" x="692" y="694"/>
	<note>
		U
	</note>
</glyph>
<glyph name="d" format="2">
	<unicode hex="0064"/>
	<advance width="574"/>
	<outline>
		<contour>
			<point x="433" y="0" type="line"/>
			<point x="489" y="0" type="line"/>
			<point x="489" y="739" type="line"/>
			<point x="409" y="739" type="line"/>
			<point x="409" y="56" type="line"/>
		</contour>
		<contour>
			<point x="269" y="-10" type="curve" smooth="yes"/>
			<point x="350" y="-10"/>
			<point x="413" y="30"/>
			<point x="450" y="96" type="curve"/>
			<point x="421" y="132" type="line"/>
			<point x="394" y="87"/>
			<point x="349" y="60"/>
			<point x="292" y="60" type="curve" smooth="yes"/>
			<point x="196" y="60"/>
			<point x="134" y="135"/>
			<point x="134" y="246" type="curve" smooth="yes"/>
			<point x="134" y="352"/>
			<point x="190" y="422"/>
			<point x="283" y="422" type="curve" smooth="yes"/>
			<point x="344" y="422"/>
			<point x="392" y="394"/>
			<point x="420" y="346" type="curve"/>
			<point x="457" y="390" type="line"/>
			<point x="422" y="455"/>
			<point x="360" y="492"/>
			<point x="280" y="492" type="curve" smooth="yes"/>
			<point x="144" y="492"/>
			<point x="54" y="390"/>
			<point x="54" y="237" type="curve" smooth="yes"/>
			<point x="54" y="89"/>
			<point x="140" y="-10"/>
		</contour>
	</outline>
	<anchor name="bottom" x="289" y="0"/>
	<anchor name="center" x="414" y="598"/>
	<anchor name="top" x="289" y="482"/>
	<anchor name="topright" x="570" y="482"/>
	<note>
		d
	</note>
</glyph>
<glyph name="v" format="2">
	<unicode hex="0076"/>
	<advance width="508"/>
	<outline>
		<contour>
			<point x="216" y="0" type="line"/>
			<point x="294" y="0" type="line"/>
			<point x="482" y="482" type="line"/>
			<point x="402" y="482" type="line"/>
			<point x="235" y="16" type="line"/>
			<point x="279" y="16" type="line"/>
			<point x="115" y="482" type="line"/>
			<point x="26" y="482" type="line"/>
		</contour>
	</outline>
	<anchor name="bottom" x="254" y="0"/>
	<anchor name="top" x="254" y="482"/>
	<note>
		v
	</note>
</glyph>
<glyph name="guillemetleft" format="2">
	<unicode hex="00AB"/>
	<advance width="537"/>
	<outline>
		<contour>
			<point x="188" y="30" type="line"/>
			<point x="278" y="30" type="line"/>
			<point x="122" y="268" type="line"/>
			<point x="122" y="221" type="line"/>
			<point x="273" y="452" type="line"/>
			<point x="192" y="452" type="line"/>
			<point x="48" y="242" type="line"/>
		</contour>
		<contour>
			<point x="400" y="30" type="line"/>
			<point x="490" y="30" type="line"/>
			<point x="334" y="268" type="line"/>
			<point x="334" y="221" type="line"/>
			<point x="485" y="452" type="line"/>
			<point x="404" y="452" type="line"/>
			<point x="260" y="242" type="line"/>
		</contour>
	</outline>
</glyph>
<glyph name="registered" format="2">
	<unicode hex="00AE"/>
	<advance width="665"/>
	<outline>
		<contour>
			<point x="330" y="279" type="curve" smooth="yes"/>
			<point x="472" y="279"/>
			<point x="573" y="377"/>
			<point x="573" y="515" type="curve" smooth="yes"/>
			<point x="573" y="652"/>
			<point x="474" y="749"/>
			<point x="335" y="749" type="curve" smooth="yes"/>
			<point x="193" y="749"/>
			<point x="92" y="649"/>
			<point x="92" y="510" type="curve" smooth="yes"/>
			<point x="92" y="374"/>
			<point x="190" y="279"/>
		</contour>
		<contour>
			<point x="336" y="325" type="curve" smooth="yes"/>
			<point x="221" y="325"/>
			<point x="139" y="405"/>
			<point x="139" y="516" type="curve" smooth="yes"/>
			<point x="139" y="625"/>
			<point x="218" y="703"/>
			<point x="330" y="703" type="curve" smooth="yes"/>
			<point x="444" y="703"/>
			<point x="526" y="622"/>
			<point x="526" y="510" type="curve" smooth="yes"/>
			<point x="526" y="401"/>
			<point x="448" y="325"/>
		</contour>
		<contour>
			<point x="240" y="380" type="line"/>
			<point x="301" y="380" type="line"/>
			<point x="301" y="658" type="line"/>
			<point x="240" y="658" type="line"/>
		</contour>
		<contour>
			<point x="283" y="476" type="line"/>
			<point x="331" y="476" type="line" smooth="yes"/>
			<point x="398" y="476"/>
			<point x="443" y="513"/>
			<point x="443" y="569" type="curve" smooth="yes"/>
			<point x="443" y="622"/>
			<point x="399" y="658"/>
			<point x="334" y="658" type="curve" smooth="yes"/>
			<point x="283" y="658" type="line"/>
			<point x="283" y="605" type="line"/>
			<point x="331" y="605" type="line" smooth="yes"/>
			<point x="360" y="605"/>
			<point x="379" y="589"/>
			<point x="379" y="566" type="curve" smooth="yes"/>
			<point x="379" y="542"/>
			<point x="365" y="528"/>
			<point x="334" y="528" type="curve" smooth="yes"/>
			<point x="283" y="528" type="line"/>
		</contour>
		<contour>
			<point x="398" y="380" type="line"/>
			<point x="463" y="380" type="line"/>
			<point x="402" y="501" type="line"/>
			<point x="343" y="501" type="line"/>
		</contour>
	</outline>
</glyph>
<glyph name="paragraph" format="2">
	<unicode hex="00B6"/>
	<advance width="732"/>
	<outline>
		<contour>
			<point x="292" y="-170" type="line"/>
			<point x="370" y="-170" type="line"/>
			<point x="370" y="625" type="line"/>
			<point x="527" y="625" type="line"/>
			<point x="527" y="-170" type="line"/>
			<point x="605" y="-170" type="line"/>
			<point x="605" y="694" type="line"/>
			<point x="312" y="694" type="line" smooth="yes"/>
			<point x="170" y="694"/>
			<point x="75" y="610"/>
			<point x="75" y="484" type="curve" smooth="yes"/>
			<point x="75" y="349"/>
			<point x="162" y="259"/>
			<point x="292" y="259" type="curve"/>
		</contour>
	</outline>
</glyph>
<glyph name="kgreenlandic" format="2">
	<unicode hex="0138"/>
	<advance width="501"/>
	<outline>
		<contour>
			<point x="85" y="0" type="line"/>
			<point x="165" y="0" type="line"/>
			<point x="165" y="482" type="line"/>
			<point x="85" y="482" type="line"/>
		</contour>
		<contour>
			<point x="390" y="-3" type="line"/>
			<point x="496" y="-3" type="line"/>
			<point x="245" y="286" type="line"/>
			<point x="239" y="237" type="line"/>
			<point x="474" y="479" type="line"/>
			<point x="379" y="479" type="line"/>
			<point x="163" y="257" type="line"/>
		</contour>
	</outline>
</glyph>
<glyph name="dieresistonos" format="2">
	<unicode hex="0385"/>
	<advance width="519"/>
	<outline>
		<contour>
			<point x="387" y="597" type="curve" smooth="yes"/>
			<point x="421" y="597"/>
			<point x="440" y="619"/>
			<point x="440" y="652" type="curve" smooth="yes"/>
			<point x="440" y="685"/>
			<point x="421" y="707"/>
			<point x="387" y="707" type="curve" smooth="yes"/>
			<point x="353" y="707"/>
			<point x="334" y="685"/>
			<point x="334" y="652" type="curve" smooth="yes"/>
			<point x="334" y="619"/>
			<point x="353" y="597"/>
		</contour>
		<contour>
			<point x="257" y="556" type="line"/>
			<point x="311" y="739" type="line"/>
			<point x="230" y="739" type="line"/>
			<point x="209" y="556" type="line"/>
		</contour>
		<contour>
			<point x="126" y="597" type="curve" smooth="yes"/>
			<point x="160" y="597"/>
			<point x="179" y="619"/>
			<point x="179" y="652" type="curve" smooth="yes"/>
			<point x="179" y="685"/>
			<point x="160" y="707"/>
			<point x="126" y="707" type="curve" smooth="yes"/>
			<point x="92" y="707"/>
			<point x="73" y="685"/>
			<point x="73" y="652" type="curve" smooth="yes"/>
			<point x="73" y="619"/>
			<point x="92" y="597"/>
		</contour>
	</outline>
	<anchor name="_top" x="233" y="482"/>
</glyph>
<glyph name="Psi" format="2">
	<unicode hex="03A8"/>
	<advance width="786"/>
	<outline>
		<contour>
			<point x="365" y="210" type="curve"/>
			<point x="369" y="282" type="line"/>
			<point x="243" y="282"/>
			<point x="157" y="344"/>
			<point x="157" y="471" type="curve" smooth="yes"/>
			<point x="157" y="694" type="line"/>
			<point x="74" y="694" type="line"/>
			<point x="74" y="461" type="line" smooth="yes"/>
			<point x="74" y="301"/>
			<point x="201" y="210"/>
		</contour>
		<contour>
			<point x="420" y="210" type="line"/>
			<point x="590" y="210"/>
			<point x="713" y="301"/>
			<point x="713" y="462" type="curve" smooth="yes"/>
			<point x="713" y="694" type="line"/>
			<point x="632" y="694" type="line"/>
			<point x="632" y="453" type="line" smooth="yes"/>
			<point x="632" y="337"/>
			<point x="547" y="282"/>
			<point x="426" y="282" type="curve"/>
		</contour>
		<component base="Iota" xOffset="247"/>
	</outline>
</glyph>
<glyph name="Omega" format="2">
	<unicode hex="03A9"/>
	<advance width="799"/>
	<outline>
		<contour>
			<point x="401" y="703" type="curve" smooth="yes"/>
			<point x="205" y="703"/>
			<point x="74" y="557"/>
			<point x="74" y="383" type="curve" smooth="yes"/>
			<point x="74" y="251"/>
			<point x="146" y="149"/>
			<point x="250" y="64" type="curve"/>
			<point x="250" y="72" type="line"/>
			<point x="58" y="72" type="line"/>
			<point x="58" y="0" type="line"/>
			<point x="344" y="0" type="line"/>
			<point x="344" y="62" type="line"/>
			<point x="237" y="149"/>
			<point x="159" y="249"/>
			<point x="159" y="377" type="curve" smooth="yes"/>
			<point x="159" y="515"/>
			<point x="247" y="630"/>
			<point x="396" y="630" type="curve" smooth="yes"/>
			<point x="545" y="630"/>
			<point x="639" y="515"/>
			<point x="639" y="377" type="curve" smooth="yes"/>
			<point x="639" y="249"/>
			<point x="560" y="150"/>
			<point x="454" y="62" type="curve"/>
			<point x="454" y="0" type="line"/>
			<point x="741" y="0" type="line"/>
			<point x="741" y="72" type="line"/>
			<point x="545" y="72" type="line"/>
			<point x="545" y="65" type="line"/>
			<point x="645" y="153"/>
			<point x="724" y="257"/>
			<point x="724" y="389" type="curve" smooth="yes"/>
			<point x="724" y="562"/>
			<point x="595" y="703"/>
		</contour>
	</outline>
	<anchor name="top" x="394" y="694"/>
	<anchor name="topleft" x="23" y="694"/>
</glyph>
<glyph name="alpha" format="2">
	<unicode hex="03B1"/>
	<advance width="585"/>
	<outline>
		<contour>
			<point x="449" y="219" type="line"/>
			<point x="426" y="69"/>
			<point x="337" y="-10"/>
			<point x="245" y="-10" type="curve" smooth="yes"/>
			<point x="121" y="-10"/>
			<point x="54" y="93"/>
			<point x="54" y="237" type="curve" smooth="yes"/>
			<point x="54" y="386"/>
			<point x="133" y="492"/>
			<point x="250" y="492" type="curve" smooth="yes"/>
			<point x="364" y="492"/>
			<point x="407" y="381"/>
			<point x="437" y="264" type="curve" smooth="yes"/>
			<point x="464" y="160" type="line" smooth="yes"/>
			<point x="480" y="97"/>
			<point x="489" y="58"/>
			<point x="526" y="58" type="curve" smooth="yes"/>
			<point x="538" y="58"/>
			<point x="551" y="61"/>
			<point x="562" y="66" type="curve"/>
			<point x="578" y="11" type="line"/>
			<point x="559" y="2"/>
			<point x="538" y="-6"/>
			<point x="512" y="-6" type="curve" smooth="yes"/>
			<point x="449" y="-6"/>
			<point x="423" y="34"/>
			<point x="398" y="134" type="curve" smooth="yes"/>
			<point x="369" y="252" type="line" smooth="yes"/>
			<point x="349" y="332"/>
			<point x="322" y="422"/>
			<point x="248" y="422" type="curve" smooth="yes"/>
			<point x="184" y="422"/>
			<point x="134" y="350"/>
			<point x="134" y="244" type="curve" smooth="yes"/>
			<point x="134" y="137"/>
			<point x="172" y="60"/>
			<point x="258" y="60" type="curve" smooth="yes"/>
			<point x="333" y="60"/>
			<point x="385" y="145"/>
			<point x="406" y="235" type="curve"/>
		</contour>
		<contour>
			<point x="456" y="167" type="line"/>
			<point x="404" y="188" type="line"/>
			<point x="468" y="482" type="line"/>
			<point x="550" y="482" type="line"/>
		</contour>
	</outline>
	<anchor name="top" x="266" y="482"/>
</glyph>
<glyph name="gamma" format="2">
	<unicode hex="03B3"/>
	<advance width="515"/>
	<outline>
		<contour>
			<point x="222" y="-7" type="line"/>
			<point x="222" y="-217" type="line"/>
			<point x="307" y="-217" type="line"/>
			<point x="296" y="-7" type="line"/>
		</contour>
		<contour>
			<point x="236" y="10" type="line"/>
			<point x="286" y="10" type="line"/>
			<point x="115" y="482" type="line"/>
			<point x="26" y="482" type="line"/>
			<point x="222" y="-7" type="line"/>
			<point x="296" y="-7" type="line"/>
			<point x="363" y="121" type="line" smooth="yes"/>
			<point x="422" y="234"/>
			<point x="475" y="380"/>
			<point x="477" y="482" type="curve"/>
			<point x="394" y="482" type="line"/>
			<point x="393" y="385"/>
			<point x="354" y="255"/>
			<point x="304" y="152" type="curve" smooth="yes"/>
		</contour>
	</outline>
</glyph>
<glyph name="zeta" format="2">
	<unicode hex="03B6"/>
	<advance width="442"/>
	<outline>
		<contour>
			<point x="130" y="223" type="curve" smooth="yes"/>
			<point x="130" y="137"/>
			<point x="176" y="103"/>
			<point x="272" y="70" type="curve" smooth="yes"/>
			<point x="381" y="32"/>
			<point x="429" y="8"/>
			<point x="429" y="-65" type="curve" smooth="yes"/>
			<point x="429" y="-117"/>
			<point x="395" y="-171"/>
			<point x="341" y="-227" type="curve"/>
			<point x="293" y="-187" type="line"/>
			<point x="327" y="-149"/>
			<point x="354" y="-118"/>
			<point x="354" y="-79" type="curve" smooth="yes"/>
			<point x="354" y="-42"/>
			<point x="332" y="-25"/>
			<point x="241" y="4" type="curve" smooth="yes"/>
			<point x="123" y="41"/>
			<point x="48" y="90"/>
			<point x="48" y="212" type="curve" smooth="yes"/>
			<point x="48" y="336"/>
			<point x="151" y="460"/>
			<point x="253" y="587" type="curve" smooth="yes"/>
			<point x="336" y="690" type="line"/>
			<point x="351" y="678" type="line"/>
			<point x="51" y="665" type="line"/>
			<point x="51" y="739" type="line"/>
			<point x="430" y="739" type="line"/>
			<point x="430" y="690" type="line"/>
			<point x="323" y="557" type="line" smooth="yes"/>
			<point x="229" y="441"/>
			<point x="130" y="331"/>
		</contour>
	</outline>
</glyph>
<glyph name="theta" format="2">
	<unicode hex="03B8"/>
	<advance width="617"/>
	<outline>
		<contour>
			<point x="302" y="-10" type="curve" smooth="yes"/>
			<point x="460" y="-10"/>
			<point x="549" y="127"/>
			<point x="549" y="375" type="curve" smooth="yes"/>
			<point x="549" y="613"/>
			<point x="467" y="749"/>
			<point x="314" y="749" type="curve" smooth="yes"/>
			<point x="156" y="749"/>
			<point x="68" y="614"/>
			<point x="68" y="366" type="curve" smooth="yes"/>
			<point x="68" y="128"/>
			<point x="149" y="-10"/>
		</contour>
		<contour>
			<point x="313" y="60" type="curve" smooth="yes"/>
			<point x="204" y="60"/>
			<point x="148" y="175"/>
			<point x="148" y="374" type="curve" smooth="yes"/>
			<point x="148" y="570"/>
			<point x="197" y="679"/>
			<point x="303" y="679" type="curve" smooth="yes"/>
			<point x="412" y="679"/>
			<point x="469" y="564"/>
			<point x="469" y="366" type="curve" smooth="yes"/>
			<point x="469" y="171"/>
			<point x="419" y="60"/>
		</contour>
		<contour>
			<point x="108" y="342" type="line"/>
			<point x="509" y="342" type="line"/>
			<point x="509" y="409" type="line"/>
			<point x="108" y="409" type="line"/>
		</contour>
	</outline>
	<anchor name="slash" x="317" y="1250"/>
</glyph>
<glyph name="lambda" format="2">
	<unicode hex="03BB"/>
	<advance width="491"/>
	<outline>
		<contour>
			<point x="174" y="615" type="line" smooth="yes"/>
			<point x="154" y="670"/>
			<point x="132" y="684"/>
			<point x="103" y="684" type="curve" smooth="yes"/>
			<point x="83" y="684"/>
			<point x="64" y="676"/>
			<point x="41" y="665" type="curve"/>
			<point x="22" y="718" type="line"/>
			<point x="52" y="735"/>
			<point x="86" y="749"/>
			<point x="119" y="749" type="curve" smooth="yes"/>
			<point x="180" y="749"/>
			<point x="218" y="717"/>
			<point x="249" y="633" type="curve" smooth="yes"/>
			<point x="481" y="0" type="line"/>
			<point x="395" y="0" type="line"/>
			<point x="231" y="476" type="line"/>
			<point x="289" y="476" type="line"/>
			<point x="98" y="0" type="line"/>
			<point x="15" y="0" type="line"/>
			<point x="219" y="492" type="line"/>
		</contour>
	</outline>
</glyph>
<glyph name="nu" format="2">
	<unicode hex="03BD"/>
	<advance width="513"/>
	<outline>
		<contour>
			<point x="237" y="17" type="line"/>
			<point x="286" y="17" type="line"/>
			<point x="115" y="482" type="line"/>
			<point x="26" y="482" type="line"/>
			<point x="222" y="0" type="line"/>
			<point x="298" y="0" type="line"/>
			<point x="361" y="124" type="line" smooth="yes"/>
			<point x="422" y="244"/>
			<point x="473" y="380"/>
			<point x="475" y="482" type="curve"/>
			<point x="392" y="482" type="line"/>
			<point x="391" y="385"/>
			<point x="355" y="264"/>
			<point x="303" y="155" type="curve" smooth="yes"/>
		</contour>
	</outline>
	<anchor name="bottom" x="254" y="0"/>
	<anchor name="top" x="254" y="482"/>
</glyph>
<glyph name="omicron" format="2">
	<unicode hex="03BF"/>
	<advance width="561"/>
	<outline>
		<contour>
			<point x="276" y="-10" type="curve" smooth="yes"/>
			<point x="415" y="-10"/>
			<point x="508" y="93"/>
			<point x="508" y="247" type="curve" smooth="yes"/>
			<point x="508" y="395"/>
			<point x="418" y="492"/>
			<point x="284" y="492" type="curve" smooth="yes"/>
			<point x="145" y="492"/>
			<point x="53" y="390"/>
			<point x="53" y="236" type="curve" smooth="yes"/>
			<point x="53" y="88"/>
			<point x="142" y="-10"/>
		</contour>
		<contour>
			<point x="285" y="60" type="curve" smooth="yes"/>
			<point x="195" y="60"/>
			<point x="133" y="136"/>
			<point x="133" y="246" type="curve" smooth="yes"/>
			<point x="133" y="352"/>
			<point x="189" y="422"/>
			<point x="275" y="422" type="curve" smooth="yes"/>
			<point x="365" y="422"/>
			<point x="428" y="345"/>
			<point x="428" y="236" type="curve" smooth="yes"/>
			<point x="428" y="131"/>
			<point x="371" y="60"/>
		</contour>
	</outline>
	<anchor name="bottom" x="281" y="0"/>
	<anchor name="center" x="281" y="241"/>
	<anchor name="ogonek" x="366" y="10"/>
	<anchor name="top" x="281" y="482"/>
	<anchor name="topright" x="505" y="482"/>
</glyph>
<glyph name="pi" format="2">
	<unicode hex="03C0"/>
	<advance width="611"/>
	<outline>
		<contour>
			<point x="495" y="-6" type="curve" smooth="yes"/>
			<point x="523" y="-6"/>
			<point x="552" y="1"/>
			<point x="571" y="10" type="curve"/>
			<point x="553" y="67" type="line"/>
			<point x="543" y="63"/>
			<point x="531" y="58"/>
			<point x="514" y="58" type="curve" smooth="yes"/>
			<point x="484" y="58"/>
			<point x="468" y="80"/>
			<point x="468" y="126" type="curve" smooth="yes"/>
			<point x="468" y="424" type="line"/>
			<point x="388" y="424" type="line"/>
			<point x="388" y="110" type="line" smooth="yes"/>
			<point x="388" y="33"/>
			<point x="432" y="-6"/>
		</contour>
		<contour>
			<point x="110" y="0" type="line"/>
			<point x="190" y="0" type="line"/>
			<point x="190" y="425" type="line"/>
			<point x="110" y="425" type="line"/>
		</contour>
		<contour>
			<point x="30" y="415" type="line"/>
			<point x="565" y="415" type="line"/>
			<point x="565" y="482" type="line"/>
			<point x="30" y="482" type="line"/>
		</contour>
	</outline>
</glyph>
<glyph name="sigma" format="2">
	<unicode hex="03C3"/>
	<advance width="595"/>
	<outline>
		<contour>
			<point x="335" y="415" type="curve" smooth="yes"/>
			<point x="421" y="415" type="line"/>
			<point x="585" y="410" type="line"/>
			<point x="585" y="482" type="line"/>
			<point x="331" y="482" type="line" smooth="yes"/>
			<point x="159" y="482"/>
			<point x="53" y="377"/>
			<point x="53" y="227" type="curve" smooth="yes"/>
			<point x="53" y="86"/>
			<point x="139" y="-10"/>
			<point x="275" y="-10" type="curve" smooth="yes"/>
			<point x="425" y="-10"/>
			<point x="504" y="88"/>
			<point x="504" y="217" type="curve" smooth="yes"/>
			<point x="504" y="301"/>
			<point x="453" y="400"/>
			<point x="360" y="476" type="curve"/>
			<point x="322" y="440" type="line"/>
			<point x="384" y="371"/>
			<point x="424" y="284"/>
			<point x="424" y="211" type="curve" smooth="yes"/>
			<point x="424" y="130"/>
			<point x="374" y="60"/>
			<point x="282" y="60" type="curve" smooth="yes"/>
			<point x="193" y="60"/>
			<point x="133" y="133"/>
			<point x="133" y="233" type="curve" smooth="yes"/>
			<point x="133" y="338"/>
			<point x="199" y="415"/>
		</contour>
	</outline>
</glyph>
<glyph name="tau" format="2">
	<unicode hex="03C4"/>
	<advance width="492"/>
	<outline>
		<contour>
			<point x="18" y="415" type="line"/>
			<point x="463" y="415" type="line"/>
			<point x="463" y="482" type="line"/>
			<point x="18" y="482" type="line"/>
		</contour>
		<contour>
			<point x="337" y="-5" type="curve" smooth="yes"/>
			<point x="372" y="-5"/>
			<point x="400" y="5"/>
			<point x="424" y="15" type="curve"/>
			<point x="406" y="73" type="line"/>
			<point x="390" y="66"/>
			<point x="371" y="60"/>
			<point x="350" y="60" type="curve" smooth="yes"/>
			<point x="305" y="60"/>
			<point x="276" y="90"/>
			<point x="276" y="154" type="curve" smooth="yes"/>
			<point x="276" y="482" type="line"/>
			<point x="196" y="482" type="line"/>
			<point x="196" y="141" type="line" smooth="yes"/>
			<point x="196" y="48"/>
			<point x="251" y="-5"/>
		</contour>
	</outline>
	<anchor name="bottom" x="275" y="0"/>
</glyph>
<glyph name="upsilon" format="2">
	<unicode hex="03C5"/>
	<advance width="546"/>
	<outline>
		<contour>
			<point x="277" y="-10" type="curve" smooth="yes"/>
			<point x="420" y="-10"/>
			<point x="493" y="77"/>
			<point x="493" y="226" type="curve" smooth="yes"/>
			<point x="493" y="318"/>
			<point x="470" y="409"/>
			<point x="446" y="482" type="curve"/>
			<point x="363" y="482" type="line"/>
			<point x="388" y="412"/>
			<point x="412" y="305"/>
			<point x="412" y="229" type="curve" smooth="yes"/>
			<point x="412" y="118"/>
			<point x="371" y="60"/>
			<point x="281" y="60" type="curve" smooth="yes"/>
			<point x="204" y="60"/>
			<point x="156" y="105"/>
			<point x="156" y="201" type="curve" smooth="yes"/>
			<point x="156" y="482" type="line"/>
			<point x="76" y="482" type="line"/>
			<point x="76" y="185" type="line" smooth="yes"/>
			<point x="76" y="62"/>
			<point x="149" y="-10"/>
		</contour>
	</outline>
	<anchor name="top" x="256" y="482"/>
</glyph>
<glyph name="phi" format="2">
	<unicode hex="03C6"/>
	<advance width="684"/>
	<outline>
		<contour>
			<point x="301" y="-5" type="curve"/>
			<point x="306" y="62" type="line"/>
			<point x="189" y="62"/>
			<point x="138" y="151"/>
			<point x="138" y="250" type="curve" smooth="yes"/>
			<point x="138" y="317"/>
			<point x="159" y="404"/>
			<point x="198" y="482" type="curve"/>
			<point x="119" y="482" type="line"/>
			<point x="83" y="409"/>
			<point x="58" y="321"/>
			<point x="58" y="240" type="curve" smooth="yes"/>
			<point x="58" y="92"/>
			<point x="158" y="-5"/>
		</contour>
		<contour>
			<point x="371" y="63" type="curve"/>
			<point x="366" y="-5" type="line"/>
			<point x="529" y="-5"/>
			<point x="630" y="99"/>
			<point x="630" y="265" type="curve" smooth="yes"/>
			<point x="630" y="392"/>
			<point x="577" y="492"/>
			<point x="465" y="492" type="curve" smooth="yes"/>
			<point x="360" y="492"/>
			<point x="295" y="423"/>
			<point x="295" y="259" type="curve" smooth="yes"/>
			<point x="295" y="-217" type="line"/>
			<point x="375" y="-217" type="line"/>
			<point x="375" y="255" type="line" smooth="yes"/>
			<point x="375" y="384"/>
			<point x="405" y="422"/>
			<point x="459" y="422" type="curve" smooth="yes"/>
			<point x="528" y="422"/>
			<point x="550" y="350"/>
			<point x="550" y="260" type="curve" smooth="yes"/>
			<point x="550" y="141"/>
			<point x="497" y="63"/>
		</contour>
	</outline>
</glyph>
<glyph name="chi" format="2">
	<unicode hex="03C7"/>
	<advance width="505"/>
	<outline>
		<contour>
			<point x="8" y="482" type="line"/>
			<point x="229" y="99" type="line"/>
			<point x="408" y="-217" type="line"/>
			<point x="499" y="-217" type="line"/>
			<point x="279" y="165" type="line"/>
			<point x="99" y="482" type="line"/>
		</contour>
		<contour>
			<point x="286" y="107" type="line"/>
			<point x="494" y="482" type="line"/>
			<point x="406" y="482" type="line"/>
			<point x="249" y="179" type="line"/>
		</contour>
		<contour>
			<point x="224" y="161" type="line"/>
			<point x="7" y="-217" type="line"/>
			<point x="95" y="-217" type="line"/>
			<point x="262" y="89" type="line"/>
		</contour>
	</outline>
</glyph>
<glyph name="omega" format="2">
	<unicode hex="03C9"/>
	<advance width="744"/>
	<outline>
		<contour>
			<point x="686" y="212" type="curve" smooth="yes"/>
			<point x="686" y="99"/>
			<point x="637" y="-10"/>
			<point x="511" y="-10" type="curve" smooth="yes"/>
			<point x="421" y="-10"/>
			<point x="362" y="56"/>
			<point x="362" y="181" type="curve"/>
			<point x="377" y="186" type="line"/>
			<point x="377" y="57"/>
			<point x="308" y="-10"/>
			<point x="223" y="-10" type="curve" smooth="yes"/>
			<point x="102" y="-10"/>
			<point x="58" y="96"/>
			<point x="58" y="208" type="curve" smooth="yes"/>
			<point x="58" y="305"/>
			<point x="87" y="392"/>
			<point x="121" y="482" type="curve"/>
			<point x="202" y="482" type="line"/>
			<point x="166" y="392"/>
			<point x="138" y="285"/>
			<point x="138" y="205" type="curve" smooth="yes"/>
			<point x="138" y="128"/>
			<point x="164" y="60"/>
			<point x="230" y="60" type="curve" smooth="yes"/>
			<point x="293" y="60"/>
			<point x="330" y="111"/>
			<point x="330" y="208" type="curve" smooth="yes"/>
			<point x="330" y="352" type="line"/>
			<point x="410" y="352" type="line"/>
			<point x="410" y="210" type="line" smooth="yes"/>
			<point x="410" y="113"/>
			<point x="448" y="60"/>
			<point x="506" y="60" type="curve" smooth="yes"/>
			<point x="584" y="60"/>
			<point x="606" y="132"/>
			<point x="606" y="209" type="curve" smooth="yes"/>
			<point x="606" y="289"/>
			<point x="573" y="394"/>
			<point x="538" y="482" type="curve"/>
			<point x="619" y="482" type="line"/>
			<point x="653" y="393"/>
			<point x="686" y="308"/>
		</contour>
	</outline>
	<anchor name="top" x="370" y="482"/>
</glyph>
<glyph name="Nje-cy" format="2">
	<unicode hex="040A"/>
	<advance width="1099"/>
	<outline>
		<contour>
			<point x="603" y="0" type="line"/>
			<point x="788" y="0" type="line" smooth="yes"/>
			<point x="942" y="0"/>
			<point x="1042" y="85"/>
			<point x="1042" y="217" type="curve" smooth="yes"/>
			<point x="1042" y="339"/>
			<point x="949" y="427"/>
			<point x="821" y="427" type="curve" smooth="yes"/>
			<point x="595" y="427" type="line"/>
			<point x="595" y="355" type="line"/>
			<point x="812" y="355" type="line" smooth="yes"/>
			<point x="896" y="355"/>
			<point x="957" y="290"/>
			<point x="957" y="200" type="curve" smooth="yes"/>
			<point x="957" y="115"/>
			<point x="903" y="72"/>
			<point x="798" y="72" type="curve" smooth="yes"/>
			<point x="603" y="72" type="line"/>
		</contour>
		<contour>
			<point x="106" y="0" type="line"/>
			<point x="189" y="0" type="line"/>
			<point x="189" y="694" type="line"/>
			<point x="106" y="694" type="line"/>
		</contour>
		<contour>
			<point x="138" y="323" type="line"/>
			<point x="608" y="323" type="line"/>
			<point x="608" y="395" type="line"/>
			<point x="138" y="395" type="line"/>
		</contour>
		<contour>
			<point x="560" y="0" type="line"/>
			<point x="643" y="0" type="line"/>
			<point x="643" y="694" type="line"/>
			<point x="560" y="694" type="line"/>
		</contour>
	</outline>
</glyph>
<glyph name="Be-cy" format="2">
	<unicode hex="0411"/>
	<advance width="649"/>
	<outline>
		<contour>
			<point x="106" y="0" type="line"/>
			<point x="338" y="0" type="line" smooth="yes"/>
			<point x="494" y="0"/>
			<point x="592" y="82"/>
			<point x="592" y="212" type="curve" smooth="yes"/>
			<point x="592" y="332"/>
			<point x="501" y="417"/>
			<point x="371" y="417" type="curve" smooth="yes"/>
			<point x="155" y="417" type="line"/>
			<point x="155" y="345" type="line"/>
			<point x="362" y="345" type="line" smooth="yes"/>
			<point x="447" y="345"/>
			<point x="507" y="284"/>
			<point x="507" y="195" type="curve" smooth="yes"/>
			<point x="507" y="112"/>
			<point x="455" y="72"/>
			<point x="348" y="72" type="curve" smooth="yes"/>
			<point x="189" y="72" type="line"/>
			<point x="189" y="623" type="line"/>
			<point x="517" y="623" type="line"/>
			<point x="517" y="694" type="line"/>
			<point x="106" y="694" type="line"/>
		</contour>
	</outline>
</glyph>
<glyph name="Ze-cy" format="2">
	<unicode hex="0417"/>
	<advance width="612"/>
	<outline>
		<contour>
			<point x="278" y="-10" type="curve" smooth="yes"/>
			<point x="436" y="-10"/>
			<point x="543" y="70"/>
			<point x="543" y="197" type="curve" smooth="yes"/>
			<point x="543" y="302"/>
			<point x="466" y="370"/>
			<point x="334" y="378" type="curve"/>
			<point x="360" y="364" type="line"/>
			<point x="464" y="369"/>
			<point x="526" y="429"/>
			<point x="526" y="526" type="curve" smooth="yes"/>
			<point x="526" y="637"/>
			<point x="437" y="704"/>
			<point x="290" y="704" type="curve" smooth="yes"/>
			<point x="207" y="704"/>
			<point x="129" y="682"/>
			<point x="67" y="647" type="curve"/>
			<point x="85" y="585" type="line"/>
			<point x="145" y="613"/>
			<point x="208" y="631"/>
			<point x="274" y="631" type="curve" smooth="yes"/>
			<point x="378" y="631"/>
			<point x="441" y="585"/>
			<point x="441" y="511" type="curve" smooth="yes"/>
			<point x="441" y="437"/>
			<point x="379" y="393"/>
			<point x="277" y="393" type="curve" smooth="yes"/>
			<point x="155" y="393" type="line"/>
			<point x="155" y="323" type="line"/>
			<point x="249" y="323" type="line" smooth="yes"/>
			<point x="385" y="323"/>
			<point x="458" y="277"/>
			<point x="458" y="189" type="curve" smooth="yes"/>
			<point x="458" y="106"/>
			<point x="393" y="63"/>
			<point x="285" y="63" type="curve" smooth="yes"/>
			<point x="222" y="63"/>
			<point x="139" y="78"/>
			<point x="71" y="112" type="curve"/>
			<point x="52" y="44" type="line"/>
			<point x="120" y="10"/>
			<point x="198" y="-10"/>
		</contour>
	</outline>
	<anchor name="bottom" x="306" y="0"/>
	<anchor name="top" x="306" y="694"/>
</glyph>
<glyph name="El-cy" format="2">
	<unicode hex="041B"/>
	<advance width="723"/>
	<outline>
		<contour>
			<point x="43" y="62" type="curve"/>
			<point x="53" y="-10" type="line"/>
			<point x="192" y="20"/>
			<point x="274" y="151"/>
			<point x="274" y="342" type="curve" smooth="yes"/>
			<point x="274" y="624" type="line"/>
			<point x="536" y="624" type="line"/>
			<point x="536" y="0" type="line"/>
			<point x="617" y="0" type="line"/>
			<point x="617" y="694" type="line"/>
			<point x="195" y="694" type="line"/>
			<point x="195" y="342" type="line" smooth="yes"/>
			<point x="195" y="191"/>
			<point x="139" y="87"/>
		</contour>
	</outline>
</glyph>
<glyph name="Pe-cy" format="2">
	<unicode hex="041F"/>
	<advance width="727"/>
	<outline>
		<contour>
			<point x="106" y="0" type="line"/>
			<point x="187" y="0" type="line"/>
			<point x="187" y="624" type="line"/>
			<point x="540" y="624" type="line"/>
			<point x="540" y="0" type="line"/>
			<point x="621" y="0" type="line"/>
			<point x="621" y="694" type="line"/>
			<point x="106" y="694" type="line"/>
		</contour>
	</outline>
	<anchor name="bottomright" x="707" y="0"/>
</glyph>
<glyph name="Hardsign-cy" format="2">
	<unicode hex="042A"/>
	<advance width="752"/>
	<outline>
		<contour>
			<point x="223" y="0" type="line"/>
			<point x="448" y="0" type="line" smooth="yes"/>
			<point x="597" y="0"/>
			<point x="695" y="85"/>
			<point x="695" y="217" type="curve" smooth="yes"/>
			<point x="695" y="339"/>
			<point x="605" y="427"/>
			<point x="481" y="427" type="curve" smooth="yes"/>
			<point x="273" y="427" type="line"/>
			<point x="273" y="355" type="line"/>
			<point x="471" y="355" type="line" smooth="yes"/>
			<point x="551" y="355"/>
			<point x="610" y="290"/>
			<point x="610" y="200" type="curve" smooth="yes"/>
			<point x="610" y="115"/>
			<point x="558" y="72"/>
			<point x="458" y="72" type="curve" smooth="yes"/>
			<point x="306" y="72" type="line"/>
			<point x="306" y="694" type="line"/>
			<point x="44" y="694" type="line"/>
			<point x="44" y="622" type="line"/>
			<point x="223" y="622" type="line"/>
		</contour>
	</outline>
	<anchor name="top" x="378" y="694"/>
</glyph>
<glyph name="Yeru-cy" format="2">
	<unicode hex="042B"/>
	<advance width="865"/>
	<outline>
		<contour>
			<point x="106" y="0" type="line"/>
			<point x="318" y="0" type="line" smooth="yes"/>
			<point x="472" y="0"/>
			<point x="572" y="85"/>
			<point x="572" y="217" type="curve" smooth="yes"/>
			<point x="572" y="339"/>
			<point x="479" y="427"/>
			<point x="351" y="427" type="curve" smooth="yes"/>
			<point x="155" y="427" type="line"/>
			<point x="155" y="355" type="line"/>
			<point x="342" y="355" type="line" smooth="yes"/>
			<point x="426" y="355"/>
			<point x="487" y="290"/>
			<point x="487" y="200" type="curve" smooth="yes"/>
			<point x="487" y="115"/>
			<point x="433" y="72"/>
			<point x="328" y="72" type="curve" smooth="yes"/>
			<point x="189" y="72" type="line"/>
			<point x="189" y="694" type="line"/>
			<point x="106" y="694" type="line"/>
		</contour>
		<contour>
			<point x="676" y="0" type="line"/>
			<point x="759" y="0" type="line"/>
			<point x="759" y="694" type="line"/>
			<point x="676" y="694" type="line"/>
		</contour>
	</outline>
	<anchor name="top" x="438" y="694"/>
</glyph>
<glyph name="Softsign-cy" format="2">
	<unicode hex="042C"/>
	<advance width="644"/>
	<outline>
		<contour>
			<point x="106" y="0" type="line"/>
			<point x="336" y="0" type="line" smooth="yes"/>
			<point x="487" y="0"/>
			<point x="587" y="85"/>
			<point x="587" y="217" type="curve" smooth="yes"/>
			<point x="587" y="339"/>
			<point x="495" y="427"/>
			<point x="368" y="427" type="curve" smooth="yes"/>
			<point x="155" y="427" type="line"/>
			<point x="155" y="355" type="line"/>
			<point x="359" y="355" type="line" smooth="yes"/>
			<point x="442" y="355"/>
			<point x="502" y="289"/>
			<point x="502" y="200" type="curve" smooth="yes"/>
			<point x="502" y="115"/>
			<point x="448" y="72"/>
			<point x="346" y="72" type="curve" smooth="yes"/>
			<point x="189" y="72" type="line"/>
			<point x="189" y="694" type="line"/>
			<point x="106" y="694" type="line"/>
		</contour>
	</outline>
</glyph>
<glyph name="Ia-cy" format="2">
	<unicode hex="042F"/>
	<advance width="652"/>
	<outline>
		<contour>
			<point x="291" y="260" type="curve" smooth="yes"/>
			<point x="493" y="260" type="line"/>
			<point x="493" y="330" type="line"/>
			<point x="301" y="330" type="line" smooth="yes"/>
			<point x="211" y="330"/>
			<point x="149" y="390"/>
			<point x="149" y="480" type="curve" smooth="yes"/>
			<point x="149" y="569"/>
			<point x="204" y="622"/>
			<point x="291" y="622" type="curve" smooth="yes"/>
			<point x="493" y="622" type="line"/>
			<point x="493" y="694" type="line"/>
			<point x="301" y="694" type="line" smooth="yes"/>
			<point x="164" y="694"/>
			<point x="64" y="597"/>
			<point x="64" y="465" type="curve" smooth="yes"/>
			<point x="64" y="341"/>
			<point x="155" y="260"/>
		</contour>
		<contour>
			<point x="54" y="0" type="line"/>
			<point x="153" y="0" type="line"/>
			<point x="336" y="306" type="line"/>
			<point x="242" y="306" type="line"/>
		</contour>
		<contour>
			<point x="463" y="0" type="line"/>
			<point x="546" y="0" type="line"/>
			<point x="546" y="694" type="line"/>
			<point x="463" y="694" type="line"/>
		</contour>
	</outline>
	<anchor name="top" x="324" y="694"/>
</glyph>
<glyph name="zhe-cy" format="2">
	<unicode hex="0436"/>
	<advance width="765"/>
	<outline>
		<contour>
			<point x="653" y="0" type="line"/>
			<point x="746" y="0" type="line"/>
			<point x="572" y="266" type="line"/>
			<point x="573" y="250" type="line"/>
			<point x="737" y="482" type="line"/>
			<point x="646" y="482" type="line"/>
			<point x="487" y="253" type="line"/>
		</contour>
		<contour>
			<point x="18" y="0" type="line"/>
			<point x="108" y="0" type="line"/>
			<point x="278" y="253" type="line"/>
			<point x="122" y="482" type="line"/>
			<point x="29" y="482" type="line"/>
			<point x="195" y="240" type="line"/>
			<point x="193" y="255" type="line"/>
		</contour>
		<contour>
			<point x="233" y="219" type="line"/>
			<point x="522" y="219" type="line"/>
			<point x="522" y="286" type="line"/>
			<point x="233" y="286" type="line"/>
		</contour>
		<contour>
			<point x="343" y="0" type="line"/>
			<point x="423" y="0" type="line"/>
			<point x="423" y="482" type="line"/>
			<point x="343" y="482" type="line"/>
		</contour>
	</outline>
	<anchor name="bottomright" x="702" y="0"/>
	<anchor name="top" x="383" y="482"/>
</glyph>
<glyph name="em-cy" format="2">
	<unicode hex="043C"/>
	<advance width="665"/>
	<outline>
		<contour>
			<point x="85" y="0" type="line"/>
			<point x="159" y="0" type="line"/>
			<point x="159" y="369" type="line"/>
			<point x="150" y="361" type="line"/>
			<point x="306" y="74" type="line"/>
			<point x="358" y="74" type="line"/>
			<point x="510" y="361" type="line"/>
			<point x="505" y="367" type="line"/>
			<point x="505" y="0" type="line"/>
			<point x="580" y="0" type="line"/>
			<point x="580" y="482" type="line"/>
			<point x="502" y="482" type="line"/>
			<point x="315" y="122" type="line"/>
			<point x="354" y="122" type="line"/>
			<point x="163" y="482" type="line"/>
			<point x="85" y="482" type="line"/>
		</contour>
	</outline>
</glyph>
<glyph name="en-cy" format="2">
	<unicode hex="043D"/>
	<advance width="578"/>
	<outline>
		<contour>
			<point x="413" y="0" type="line"/>
			<point x="493" y="0" type="line"/>
			<point x="493" y="486" type="line"/>
			<point x="413" y="486" type="line"/>
		</contour>
		<contour>
			<point x="85" y="0" type="line"/>
			<point x="165" y="0" type="line"/>
			<point x="165" y="486" type="line"/>
			<point x="85" y="486" type="line"/>
		</contour>
		<contour>
			<point x="138" y="218" type="line"/>
			<point x="440" y="218" type="line"/>
			<point x="440" y="285" type="line"/>
			<point x="138" y="285" type="line"/>
		</contour>
	</outline>
	<anchor name="bottomright" x="491" y="0"/>
</glyph>
<glyph name="pe-cy" format="2">
	<unicode hex="043F"/>
	<advance width="570"/>
	<outline>
		<contour>
			<point x="85" y="0" type="line"/>
			<point x="163" y="0" type="line"/>
			<point x="163" y="415" type="line"/>
			<point x="407" y="415" type="line"/>
			<point x="407" y="0" type="line"/>
			<point x="485" y="0" type="line"/>
			<point x="485" y="482" type="line"/>
			<point x="85" y="482" type="line"/>
		</contour>
	</outline>
	<anchor name="bottomright" x="545" y="0"/>
</glyph>
<glyph name="tse-cy" format="2">
	<unicode hex="0446"/>
	<advance width="583"/>
	<outline>
		<contour>
			<point x="481" y="-126" type="line"/>
			<point x="553" y="-126" type="line"/>
			<point x="553" y="66" type="line"/>
			<point x="164" y="66" type="line"/>
			<point x="164" y="482" type="line"/>
			<point x="85" y="482" type="line"/>
			<point x="85" y="0" type="line"/>
			<point x="481" y="0" type="line"/>
		</contour>
		<contour>
			<point x="405" y="32" type="line"/>
			<point x="484" y="32" type="line"/>
			<point x="484" y="482" type="line"/>
			<point x="405" y="482" type="line"/>
		</contour>
	</outline>
</glyph>
<glyph name="che-cy" format="2">
	<unicode hex="0447"/>
	<advance width="537"/>
	<outline>
		<contour>
			<point x="222" y="171" type="curve" smooth="yes"/>
			<point x="286" y="171"/>
			<point x="358" y="192"/>
			<point x="402" y="226" type="curve"/>
			<point x="387" y="277" type="line"/>
			<point x="349" y="255"/>
			<point x="294" y="241"/>
			<point x="247" y="241" type="curve" smooth="yes"/>
			<point x="176" y="241"/>
			<point x="132" y="276"/>
			<point x="132" y="336" type="curve" smooth="yes"/>
			<point x="132" y="482" type="line"/>
			<point x="51" y="482" type="line"/>
			<point x="51" y="301" type="line" smooth="yes"/>
			<point x="51" y="222"/>
			<point x="119" y="171"/>
		</contour>
		<contour>
			<point x="371" y="0" type="line"/>
			<point x="452" y="0" type="line"/>
			<point x="452" y="482" type="line"/>
			<point x="371" y="482" type="line"/>
		</contour>
	</outline>
	<anchor name="bottomright" x="457" y="0"/>
	<anchor name="top" x="269" y="482"/>
</glyph>
<glyph name="sha-cy" format="2">
	<unicode hex="0448"/>
	<advance width="841"/>
	<outline>
		<contour>
			<point x="85" y="0" type="line"/>
			<point x="756" y="0" type="line"/>
			<point x="756" y="482" type="line"/>
			<point x="676" y="482" type="line"/>
			<point x="676" y="66" type="line"/>
			<point x="165" y="66" type="line"/>
			<point x="165" y="482" type="line"/>
			<point x="85" y="482" type="line"/>
		</contour>
		<contour>
			<point x="381" y="30" type="line"/>
			<point x="460" y="30" type="line"/>
			<point x="460" y="482" type="line"/>
			<point x="381" y="482" type="line"/>
		</contour>
	</outline>
</glyph>
<glyph name="lje-cy" format="2">
	<unicode hex="0459"/>
	<advance width="837"/>
	<outline>
		<contour>
			<point x="26" y="62" type="curve"/>
			<point x="37" y="-11" type="line"/>
			<point x="149" y="10"/>
			<point x="214" y="105"/>
			<point x="214" y="242" type="curve" smooth="yes"/>
			<point x="214" y="415" type="line"/>
			<point x="399" y="415" type="line"/>
			<point x="399" y="0" type="line"/>
			<point x="479" y="0" type="line"/>
			<point x="479" y="482" type="line"/>
			<point x="139" y="482" type="line"/>
			<point x="139" y="241" type="line" smooth="yes"/>
			<point x="139" y="144"/>
			<point x="97" y="77"/>
		</contour>
		<contour>
			<point x="447" y="0" type="line"/>
			<point x="592" y="0" type="line" smooth="yes"/>
			<point x="718" y="0"/>
			<point x="795" y="62"/>
			<point x="795" y="164" type="curve" smooth="yes"/>
			<point x="795" y="259"/>
			<point x="725" y="320"/>
			<point x="622" y="320" type="curve" smooth="yes"/>
			<point x="447" y="320" type="line"/>
			<point x="447" y="255" type="line"/>
			<point x="609" y="255" type="line" smooth="yes"/>
			<point x="671" y="255"/>
			<point x="715" y="214"/>
			<point x="715" y="156" type="curve" smooth="yes"/>
			<point x="715" y="100"/>
			<point x="673" y="67"/>
			<point x="603" y="67" type="curve" smooth="yes"/>
			<point x="447" y="67" type="line"/>
		</contour>
	</outline>
</glyph>
<glyph name="izhitsa-cy" format="2">
	<unicode hex="0475"/>
	<advance width="519"/>
	<outline>
		<contour>
			<point x="201" y="0" type="line"/>
			<point x="275" y="0" type="line"/>
			<point x="385" y="323" type="line" smooth="yes"/>
			<point x="406" y="383"/>
			<point x="435" y="422"/>
			<point x="493" y="422" type="curve"/>
			<point x="484" y="492" type="line"/>
			<point x="406" y="492"/>
			<point x="352" y="445"/>
			<point x="324" y="356" type="curve" smooth="yes"/>
			<point x="226" y="44" type="line"/>
			<point x="256" y="44" type="line"/>
			<point x="110" y="486" type="line"/>
			<point x="25" y="486" type="line"/>
		</contour>
	</outline>
</glyph>
<glyph name="gheupturn-cy" format="2">
	<unicode hex="0491"/>
	<advance width="450"/>
	<outline>
		<contour>
			<point x="85" y="0" type="line"/>
			<point x="164" y="0" type="line"/>
			<point x="164" y="414" type="line"/>
			<point x="432" y="414" type="line"/>
			<point x="432" y="612" type="line"/>
			<point x="358" y="612" type="line"/>
			<point x="358" y="482" type="line"/>
			<point x="85" y="482" type="line"/>
		</contour>
	</outline>
</glyph>
<glyph name="Kaverticalstroke-cy" format="2">
	<unicode hex="049C"/>
	<advance width="674"/>
	<outline>
		<contour>
			<point x="536" y="0" type="line"/>
			<point x="631" y="0" type="line"/>
			<point x="393" y="380" type="line"/>
			<point x="398" y="358" type="line"/>
			<point x="618" y="694" type="line"/>
			<point x="530" y="694" type="line"/>
			<point x="309" y="361" type="line"/>
		</contour>
		<contour>
			<point x="106" y="0" type="line"/>
			<point x="188" y="0" type="line"/>
			<point x="188" y="694" type="line"/>
			<point x="106" y="694" type="line"/>
		</contour>
		<contour>
			<point x="139" y="323" type="line"/>
			<point x="359" y="323" type="line"/>
			<point x="359" y="395" type="line"/>
			<point x="139" y="395" type="line"/>
		</contour>
		<contour>
			<point x="243" y="175" type="line"/>
			<point x="312" y="175" type="line"/>
			<point x="312" y="545" type="line"/>
			<point x="243" y="545" type="line"/>
		</contour>
	</outline>
</glyph>
<glyph name="ustrait-cy" format="2">
	<unicode hex="04AF"/>
	<advance width="508"/>
	<outline>
		<contour>
			<point x="216" y="-217" type="line"/>
			<point x="294" y="-217" type="line"/>
			<point x="294" y="0" type="line"/>
			<point x="216" y="0" type="line"/>
		</contour>
		<component base="v"/>
	</outline>
	<anchor name="center" x="253" y="-24"/>
</glyph>
<glyph name="Shha-cy" format="2">
	<unicode hex="04BA"/>
	<advance width="654"/>
	<outline>
		<contour>
			<point x="505" y="0" type="line"/>
			<point x="585" y="0" type="line"/>
			<point x="585" y="246" type="line" smooth="yes"/>
			<point x="585" y="353"/>
			<point x="499" y="422"/>
			<point x="367" y="422" type="curve" smooth="yes"/>
			<point x="281" y="422"/>
			<point x="192" y="392"/>
			<point x="131" y="343" type="curve"/>
			<point x="150" y="292" type="line"/>
			<point x="201" y="329"/>
			<point x="272" y="352"/>
			<point x="346" y="352" type="curve" smooth="yes"/>
			<point x="446" y="352"/>
			<point x="505" y="308"/>
			<point x="505" y="230" type="curve" smooth="yes"/>
		</contour>
		<contour>
			<point x="105" y="0" type="line"/>
			<point x="188" y="0" type="line"/>
			<point x="188" y="660" type="line"/>
			<point x="105" y="660" type="line"/>
		</contour>
	</outline>
</glyph>
<glyph name="emdash" format="2">
	<unicode hex="2014"/>
	<advance width="1170"/>
	<outline>
		<contour>
			<point x="85" y="220" type="line"/>
			<point x="1085" y="220" type="line"/>
			<point x="1085" y="287" type="line"/>
			<point x="85" y="287" type="line"/>
		</contour>
	</outline>
</glyph>
<glyph name="perthousand" format="2">
	<unicode hex="2030"/>
	<advance width="1391"/>
	<outline>
		<contour>
			<point x="269" y="0" type="line"/>
			<point x="346" y="0" type="line"/>
			<point x="728" y="694" type="line"/>
			<point x="645" y="694" type="line"/>
		</contour>
		<contour>
			<point x="248" y="262" type="curve" smooth="yes"/>
			<point x="349" y="262"/>
			<point x="415" y="349"/>
			<point x="415" y="485" type="curve" smooth="yes"/>
			<point x="415" y="618"/>
			<point x="351" y="704"/>
			<point x="251" y="704" type="curve" smooth="yes"/>
			<point x="148" y="704"/>
			<point x="82" y="617"/>
			<point x="82" y="481" type="curve" smooth="yes"/>
			<point x="82" y="347"/>
			<point x="147" y="262"/>
		</contour>
		<contour>
			<point x="250" y="328" type="curve" smooth="yes"/>
			<point x="196" y="328"/>
			<point x="161" y="389"/>
			<point x="161" y="485" type="curve" smooth="yes"/>
			<point x="161" y="579"/>
			<point x="195" y="638"/>
			<point x="248" y="638" type="curve" smooth="yes"/>
			<point x="302" y="638"/>
			<point x="337" y="577"/>
			<point x="337" y="480" type="curve" smooth="yes"/>
			<point x="337" y="387"/>
			<point x="303" y="328"/>
		</contour>
		<contour>
			<point x="750" y="-6" type="curve" smooth="yes"/>
			<point x="851" y="-6"/>
			<point x="917" y="81"/>
			<point x="917" y="217" type="curve" smooth="yes"/>
			<point x="917" y="350"/>
			<point x="853" y="436"/>
			<point x="753" y="436" type="curve" smooth="yes"/>
			<point x="650" y="436"/>
			<point x="584" y="349"/>
			<point x="584" y="213" type="curve" smooth="yes"/>
			<point x="584" y="79"/>
			<point x="649" y="-6"/>
		</contour>
		<contour>
			<point x="752" y="60" type="curve" smooth="yes"/>
			<point x="698" y="60"/>
			<point x="663" y="121"/>
			<point x="663" y="217" type="curve" smooth="yes"/>
			<point x="663" y="311"/>
			<point x="697" y="370"/>
			<point x="750" y="370" type="curve" smooth="yes"/>
			<point x="804" y="370"/>
			<point x="839" y="309"/>
			<point x="839" y="212" type="curve" smooth="yes"/>
			<point x="839" y="119"/>
			<point x="805" y="60"/>
		</contour>
		<contour>
			<point x="1142" y="-6" type="curve" smooth="yes"/>
			<point x="1243" y="-6"/>
			<point x="1309" y="81"/>
			<point x="1309" y="217" type="curve" smooth="yes"/>
			<point x="1309" y="350"/>
			<point x="1245" y="436"/>
			<point x="1145" y="436" type="curve" smooth="yes"/>
			<point x="1042" y="436"/>
			<point x="976" y="349"/>
			<point x="976" y="213" type="curve" smooth="yes"/>
			<point x="976" y="79"/>
			<point x="1041" y="-6"/>
		</contour>
		<contour>
			<point x="1144" y="60" type="curve" smooth="yes"/>
			<point x="1090" y="60"/>
			<point x="1055" y="121"/>
			<point x="1055" y="217" type="curve" smooth="yes"/>
			<point x="1055" y="311"/>
			<point x="1089" y="370"/>
			<point x="1142" y="370" type="curve" smooth="yes"/>
			<point x="1196" y="370"/>
			<point x="1231" y="309"/>
			<point x="1231" y="212" type="curve" smooth="yes"/>
			<point x="1231" y="119"/>
			<point x="1197" y="60"/>
		</contour>
	</outline>
</glyph>
<glyph name="guilsinglright" format="2">
	<unicode hex="203A"/>
	<advance width="327"/>
	<outline>
		<contour>
			<point x="55" y="30" type="line"/>
			<point x="136" y="30" type="line"/>
			<point x="277" y="241" type="line"/>
			<point x="135" y="452" type="line"/>
			<point x="47" y="452" type="line"/>
			<point x="205" y="215" type="line"/>
			<point x="205" y="262" type="line"/>
		</contour>
	</outline>
</glyph>
<glyph name="lira" format="2">
	<unicode hex="20A4"/>
	<advance width="653"/>
	<outline>
		<contour>
			<point x="93" y="0" type="line"/>
			<point x="575" y="0" type="line"/>
			<point x="575" y="72" type="line"/>
			<point x="188" y="72" type="line"/>
			<point x="232" y="90"/>
			<point x="248" y="145"/>
			<point x="248" y="208" type="curve" smooth="yes"/>
			<point x="248" y="491" type="line" smooth="yes"/>
			<point x="248" y="577"/>
			<point x="299" y="631"/>
			<point x="407" y="631" type="curve" smooth="yes"/>
			<point x="445" y="631"/>
			<point x="483" y="624"/>
			<point x="524" y="612" type="curve"/>
			<point x="548" y="681" type="line"/>
			<point x="506" y="697"/>
			<point x="466" y="704"/>
			<point x="419" y="704" type="curve" smooth="yes"/>
			<point x="251" y="704"/>
			<point x="171" y="615"/>
			<point x="171" y="481" type="curve" smooth="yes"/>
			<point x="171" y="198" type="line" smooth="yes"/>
			<point x="171" y="141"/>
			<point x="146" y="90"/>
			<point x="93" y="72" type="curve"/>
		</contour>
		<contour>
			<point x="106" y="408" type="line"/>
			<point x="481" y="408" type="line"/>
			<point x="481" y="468" type="line"/>
			<point x="106" y="468" type="line"/>
		</contour>
		<contour>
			<point x="106" y="248" type="line"/>
			<point x="481" y="248" type="line"/>
			<point x="481" y="308" type="line"/>
			<point x="106" y="308" type="line"/>
		</contour>
	</outline>
</glyph>
<glyph name="liraTurkish" format="2">
	<unicode hex="20BA"/>
	<advance width="658"/>
	<outline>
		<contour>
			<point x="236" y="0" type="line"/>
			<point x="441" y="0"/>
			<point x="577" y="132"/>
			<point x="577" y="330" type="curve"/>
			<point x="497" y="330" type="line"/>
			<point x="497" y="174"/>
			<point x="397" y="70"/>
			<point x="246" y="70" type="curve"/>
		</contour>
		<contour>
			<point x="169" y="0" type="line"/>
			<point x="246" y="0" type="line"/>
			<point x="246" y="694" type="line"/>
			<point x="169" y="694" type="line"/>
		</contour>
		<contour>
			<point x="105" y="393" type="line"/>
			<point x="410" y="571" type="line"/>
			<point x="382" y="625" type="line"/>
			<point x="79" y="446" type="line"/>
		</contour>
		<contour>
			<point x="120" y="252" type="line"/>
			<point x="410" y="421" type="line"/>
			<point x="382" y="475" type="line"/>
			<point x="94" y="305" type="line"/>
		</contour>
	</outline>
</glyph>
<glyph name="upArrow" format="2">
	<unicode hex="2191"/>
	<advance width="656"/>
	<outline>
		<contour>
			<point x="289" y="44" type="line"/>
			<point x="365" y="44" type="line"/>
			<point x="363" y="464" type="line"/>
			<point x="541" y="278" type="line"/>
			<point x="592" y="329" type="line"/>
			<point x="329" y="598" type="line"/>
			<point x="325" y="598" type="line"/>
			<point x="64" y="329" type="line"/>
			<point x="115" y="279" type="line"/>
			<point x="291" y="466" type="line"/>
		</contour>
	</outline>
	<note>
		arrowup
	</note>
</glyph>
<glyph name="product" format="2">
	<unicode hex="220F"/>
	<advance width="790"/>
	<outline>
		<contour>
			<point x="127" y="-95" type="line"/>
			<point x="210" y="-95" type="line"/>
			<point x="210" y="622" type="line"/>
			<point x="580" y="622" type="line"/>
			<point x="580" y="-95" type="line"/>
			<point x="663" y="-95" type="line"/>
			<point x="663" y="694" type="line"/>
			<point x="127" y="694" type="line"/>
		</contour>
	</outline>
</glyph>
<glyph name="blank" format="2">
	<unicode hex="2423"/>
	<advance width="820"/>
	<outline>
		<contour>
			<point x="127" y="0" type="line"/>
			<point x="693" y="0" type="line"/>
			<point x="693" y="166" type="line"/>
			<point x="620" y="166" type="line"/>
			<point x="620" y="73" type="line"/>
			<point x="200" y="73" type="line"/>
			<point x="200" y="166" type="line"/>
			<point x="127" y="166" type="line"/>
		</contour>
	</outline>
	<note>
		uni2423
	</note>
</glyph>
<glyph name="descenderreversed-cy" format="2">
	<advance width="267"/>
	<outline>
		<contour>
			<point x="50" y="-120" type="line"/>
			<point x="125" y="-120" type="line"/>
			<point x="125" y="0" type="line"/>
			<point x="182" y="0" type="line"/>
			<point x="182" y="72" type="line"/>
			<point x="50" y="72" type="line"/>
		</contour>
	</outline>
	<anchor name="_bottomright" x="207" y="0"/>
</glyph>
<glyph name="five.lf" format="2">
	<advance width="562"/>
	<outline>
		<contour>
			<point x="250" y="-10" type="curve" smooth="yes"/>
			<point x="406" y="-10"/>
			<point x="509" y="77"/>
			<point x="509" y="215" type="curve" smooth="yes"/>
			<point x="509" y="346"/>
			<point x="416" y="427"/>
			<point x="260" y="427" type="curve" smooth="yes"/>
			<point x="225" y="427"/>
			<point x="187" y="423"/>
			<point x="149" y="415" type="curve"/>
			<point x="168" y="389" type="line"/>
			<point x="179" y="622" type="line"/>
			<point x="476" y="622" type="line"/>
			<point x="476" y="694" type="line"/>
			<point x="104" y="694" type="line"/>
			<point x="87" y="338" type="line"/>
			<point x="138" y="349"/>
			<point x="193" y="355"/>
			<point x="232" y="355" type="curve" smooth="yes"/>
			<point x="354" y="355"/>
			<point x="424" y="298"/>
			<point x="424" y="205" type="curve" smooth="yes"/>
			<point x="424" y="116"/>
			<point x="360" y="63"/>
			<point x="258" y="63" type="curve" smooth="yes"/>
			<point x="198" y="63"/>
			<point x="133" y="79"/>
			<point x="78" y="107" type="curve"/>
			<point x="54" y="42" type="line"/>
			<point x="117" y="9"/>
			<point x="181" y="-10"/>
		</contour>
	</outline>
</glyph>
<glyph name="one.lf" format="2">
	<advance width="449"/>
	<outline>
		<contour>
			<point x="204" y="55" type="line"/>
			<point x="287" y="55" type="line"/>
			<point x="287" y="694" type="line"/>
			<point x="237" y="694" type="line"/>
			<point x="48" y="571" type="line"/>
			<point x="79" y="515" type="line"/>
			<point x="234" y="610" type="line"/>
			<point x="204" y="635" type="line"/>
		</contour>
		<contour>
			<point x="67" y="0" type="line"/>
			<point x="407" y="0" type="line"/>
			<point x="407" y="71" type="line"/>
			<point x="67" y="71" type="line"/>
		</contour>
	</outline>
</glyph>
<glyph name="seven.osf" format="2">
	<advance width="545"/>
	<outline>
		<contour>
			<point x="131" y="-100" type="line"/>
			<point x="215" y="-100" type="line"/>
			<point x="503" y="555" type="line"/>
			<point x="503" y="594" type="line"/>
			<point x="40" y="594" type="line"/>
			<point x="40" y="525" type="line"/>
			<point x="440" y="525" type="line"/>
			<point x="420" y="554" type="line"/>
		</contour>
	</outline>
</glyph>
<glyph name="tonos.comb" format="2">
	<advance width="257"/>
	<outline>
		<contour>
			<point x="133" y="556" type="line"/>
			<point x="195" y="739" type="line"/>
			<point x="107" y="739" type="line"/>
			<point x="81" y="556" type="line"/>
		</contour>
	</outline>
	<anchor name="_top" x="105" y="482"/>
</glyph>
<glyph name="two.lf" format="2">
	<advance width="541"/>
	<outline>
		<contour>
			<point x="56" y="0" type="line"/>
			<point x="491" y="0" type="line"/>
			<point x="491" y="72" type="line"/>
			<point x="141" y="72" type="line"/>
			<point x="148" y="48" type="line"/>
			<point x="372" y="266"/>
			<point x="462" y="383"/>
			<point x="462" y="510" type="curve" smooth="yes"/>
			<point x="462" y="630"/>
			<point x="383" y="704"/>
			<point x="254" y="704" type="curve" smooth="yes"/>
			<point x="173" y="704"/>
			<point x="94" y="674"/>
			<point x="44" y="625" type="curve"/>
			<point x="69" y="567" type="line"/>
			<point x="118" y="607"/>
			<point x="181" y="631"/>
			<point x="238" y="631" type="curve" smooth="yes"/>
			<point x="323" y="631"/>
			<point x="377" y="579"/>
			<point x="377" y="496" type="curve" smooth="yes"/>
			<point x="377" y="396"/>
			<point x="299" y="291"/>
			<point x="56" y="55" type="curve"/>
		</contour>
	</outline>
</glyph>
<glyph name="zero.osf" format="2">
	<advance width="635"/>
	<outline>
		<contour>
			<point x="314" y="-9" type="curve" smooth="yes"/>
			<point x="471" y="-9"/>
			<point x="565" y="109"/>
			<point x="565" y="302" type="curve" smooth="yes"/>
			<point x="565" y="488"/>
			<point x="474" y="604"/>
			<point x="322" y="604" type="curve" smooth="yes"/>
			<point x="164" y="604"/>
			<point x="69" y="485"/>
			<point x="69" y="294" type="curve" smooth="yes"/>
			<point x="69" y="106"/>
			<point x="161" y="-9"/>
		</contour>
		<contour>
			<point x="321" y="60" type="curve" smooth="yes"/>
			<point x="215" y="60"/>
			<point x="151" y="152"/>
			<point x="151" y="302" type="curve" smooth="yes"/>
			<point x="151" y="447"/>
			<point x="213" y="536"/>
			<point x="315" y="536" type="curve" smooth="yes"/>
			<point x="420" y="536"/>
			<point x="483" y="442"/>
			<point x="483" y="294" type="curve" smooth="yes"/>
			<point x="483" y="149"/>
			<point x="423" y="60"/>
		</contour>
	</outline>
	<anchor name="slash" x="318" y="300"/>
</glyph>
